<?xml version="1.0" encoding="UTF-8"?>
<svg id="Layer_1" xmlns="http://www.w3.org/2000/svg" version="1.1" viewBox="0 0 1920 1080">
  <!-- Generator: Adobe Illustrator 29.1.0, SVG Export Plug-In . SVG Version: 2.1.0 Build 142)  -->
  <path d="M123.59,161.7c95.04,5.72,200.75-9.52,294.26,4.26,82.31,12.13,165.39,56.38,131.85,153.74-14.3,41.49-45.73,51.97-81.98,66.35-4.48,1.78-7.2-2.91-5.68,7.6,110.9,6.07,144.39,158.05,60.52,222.16-90.56,69.22-289.59,29.05-398.97,40.26V161.7ZM207.26,374.66h169.23c7.61,0,35.98-8.81,44.71-12.33,64-25.85,64.84-108.9-.84-134.21-10.95-4.22-45.1-13.18-55.28-13.18h-157.82v159.72ZM207.26,602.83h165.43c10.79,0,41.77-7.38,53.39-11.26,78.84-26.34,74.37-131.47-5.78-154.23-12.52-3.55-47.14-9.44-59.01-9.44h-154.02v174.93Z"/>
  <polygon points="945.02 161.7 945.02 393.67 1197.91 161.7 1298.68 161.7 1082.18 360.84 1340.52 656.07 1243.54 656.07 1023.53 409.21 945.02 479.24 945.02 656.07 861.35 656.07 861.35 161.7 945.02 161.7"/>
  <polygon points="1800.66 161.7 1800.66 214.94 1492.63 214.94 1492.63 376.56 1498.34 382.26 1800.66 382.26 1800.66 435.5 1492.63 435.5 1492.63 602.83 1800.66 602.83 1800.66 656.07 1408.97 656.07 1408.97 161.7 1800.66 161.7"/>
  <rect x="663.6" y="161.7" width="83.66" height="494.37"/>
  <path d="M534.31,770.16l26.85,1.68,14.94,32.54c6.05-39.8,72.94-50.34,97.63-25.33,6.18,6.26,7.46,23.58,14.56,21.56,12.28-36.59,74.45-45.99,101.01-21.13,4.46,4.17,15.02,22.33,15.02,26.81v108.38h-41.83v-96.97c0-24.66-40.39-26.88-57.22-11.58-3.21,2.91-15.04,20.83-15.04,22.99v85.56h-41.83v-100.78c0-21.18-41.41-22.38-56.74-7.3-2.41,2.37-11.71,17.41-11.71,18.71v89.37h-45.63v-144.51Z"/>
  <path d="M488.67,709.31v205.36l-26.1-.52-10.01-26.08c-43.96,58.57-136.32,31.39-137.35-44.38-.95-69.44,76.32-101.54,127.83-58.32v-72.25l45.63-3.8ZM392.56,797.67c-40.45,8.31-43.99,80.59,1.81,91.66,73.27,17.7,79.12-108.29-1.81-91.66Z"/>
  <path d="M279.51,846.21h-129.3c6.01,53.01,78,62.76,93.62,11.11l39.5,7.92c-17.24,76.97-160.8,70.98-174.03-6.62-19.84-116.34,182.12-128.7,170.21-12.42ZM233.88,823.4c-9.35-41.39-66.36-37.21-79.86,0h79.86Z"/>
  <path d="M913.68,767.35c64.45-9.44,126.35,25.7,109.56,98.14-17.85,77.03-193.98,79.14-176.76-39.87,4.58-31.65,37.12-53.87,67.21-58.28ZM917.3,797.6c-34.71,7.86-40.24,87.67,11.61,93.54,69.94,7.92,70.75-112.19-11.61-93.54Z"/>
  <path d="M1495.52,767.34c66.74-8.99,126.94,30.67,103.82,103.82-21.36,67.58-163.77,64.45-174.82-11.96-7.34-50.75,21.01-85.13,71-91.86ZM1499.2,797.67c-42.67,8.78-41.04,86.75,7.76,93.43,67.76,9.27,72.92-110.03-7.76-93.43Z"/>
  <path d="M1812.07,914.67h-45.63v-100.78c0-21.05-50.3-23.24-66.73-5.88-2.49,2.63-13.13,19.72-13.13,21.09v85.56h-41.83v-144.51l26.26.37,9.87,33.89c13.78-44.48,90.12-50.63,118.07-19.24,4.47,5.02,13.12,23.45,13.12,28.71v100.78Z"/>
  <path d="M1234.04,914.67h-45.63v-100.78c0-1.21-14.44-15.31-17.89-16.32-13.95-4.13-32.98-1.62-44.87,6.81-3.84,2.72-17.11,17.77-17.11,20.92v89.37h-41.83v-144.51l26.46.16,9.66,34.1c11.16-44.88,89.11-49.97,116.06-21.03,4.28,4.59,15.14,29.4,15.14,34.3v96.97Z"/>
  <path d="M1332.91,716.92v53.24h68.45c-.27,9.24,2.89,20.46-5.7,26.62h-62.75v74.16c0,2.21,8.59,13.01,11.51,15.11,22.62,16.24,45.46-14.29,49.36-11.37l7.83,25.97c-21.93,20.98-78.07,27.19-99.22,4.61-1.93-2.06-11.31-18-11.31-19.11v-89.37l-34.25.02v-26.66s34.26.04,34.26.04c-7.69-34.2,15.66-41.35,41.81-53.26Z"/>
</svg>